<svg xmlns="http://www.w3.org/2000/svg" viewBox="0 0 680 560" role="img" aria-labelledby="title desc">
  <title id="title">Ilustrasi pendidikan Himung</title>
  <desc id="desc">Guru dan siswa memakai laptop dan ponsel dengan elemen edukasi ceria.</desc>
  <rect x="54" y="72" width="500" height="330" rx="24" fill="#fff" stroke="#111" stroke-width="8"/>
  <rect x="84" y="104" width="440" height="52" rx="12" fill="#3D7BFF" stroke="#111" stroke-width="7"/>
  <circle cx="118" cy="130" r="9" fill="#FFD928" stroke="#111" stroke-width="5"/>
  <circle cx="150" cy="130" r="9" fill="#FF4F9A" stroke="#111" stroke-width="5"/>
  <circle cx="182" cy="130" r="9" fill="#2ED47A" stroke="#111" stroke-width="5"/>
  <rect x="104" y="184" width="174" height="126" rx="14" fill="#FFD928" stroke="#111" stroke-width="7"/>
  <path d="M126 230h130M126 262h92" stroke="#111" stroke-width="9" stroke-linecap="round"/>
  <rect x="314" y="188" width="158" height="96" rx="14" fill="#D8FFE9" stroke="#111" stroke-width="7"/>
  <path d="m362 222 26 26 52-58" fill="none" stroke="#2ED47A" stroke-width="11" stroke-linecap="round" stroke-linejoin="round"/>
  <circle cx="520" cy="112" r="48" fill="#FF4F9A" stroke="#111" stroke-width="8"/>
  <path d="M499 109c10 17 30 17 42 0" fill="none" stroke="#111" stroke-width="7" stroke-linecap="round"/>
  <circle cx="504" cy="98" r="5" fill="#111"/>
  <circle cx="536" cy="98" r="5" fill="#111"/>

  <g transform="translate(63 302)">
    <circle cx="90" cy="54" r="42" fill="#FFCFB0" stroke="#111" stroke-width="7"/>
    <path d="M48 44c18-46 76-49 90 3-26-5-60-5-90-3z" fill="#7047FF" stroke="#111" stroke-width="7"/>
    <path d="M76 64c7 9 20 9 28 0" fill="none" stroke="#111" stroke-width="6" stroke-linecap="round"/>
    <path d="M28 226c8-76 42-112 70-112s62 36 70 112z" fill="#3D7BFF" stroke="#111" stroke-width="8"/>
    <rect x="57" y="158" width="170" height="94" rx="12" fill="#fff" stroke="#111" stroke-width="8"/>
    <path d="M122 204h38" stroke="#111" stroke-width="8" stroke-linecap="round"/>
  </g>

  <g transform="translate(352 303)">
    <circle cx="84" cy="48" r="38" fill="#FFD2BA" stroke="#111" stroke-width="7"/>
    <path d="M48 42c13-34 60-45 83-4-15 10-55 8-83 4z" fill="#111"/>
    <circle cx="72" cy="50" r="4" fill="#111"/>
    <circle cx="98" cy="50" r="4" fill="#111"/>
    <path d="M73 68c8 7 18 7 25 0" fill="none" stroke="#111" stroke-width="5" stroke-linecap="round"/>
    <path d="M24 216c8-72 36-104 64-104s56 32 64 104z" fill="#2ED47A" stroke="#111" stroke-width="8"/>
    <rect x="139" y="112" width="70" height="126" rx="14" fill="#fff" stroke="#111" stroke-width="8"/>
    <rect x="156" y="132" width="36" height="62" rx="6" fill="#FFD928"/>
    <path d="M164 212h20" stroke="#111" stroke-width="7" stroke-linecap="round"/>
  </g>

  <path d="M585 235 606 258l35-51" fill="none" stroke="#2ED47A" stroke-width="11" stroke-linecap="round" stroke-linejoin="round"/>
  <path d="m49 69 19-24 18 24 28 6-21 19 3 29-28-14-28 14 3-29-21-19z" fill="#FFD928" stroke="#111" stroke-width="7" stroke-linejoin="round"/>
  <path d="M604 354v38M585 373h38" stroke="#111" stroke-width="8" stroke-linecap="round"/>
  <path d="M586 354v38M567 373h38" stroke="#FF4F9A" stroke-width="5" stroke-linecap="round"/>
  <circle cx="67" cy="446" r="22" fill="#FF8A34" stroke="#111" stroke-width="7"/>
</svg>
