<svg xmlns="http://www.w3.org/2000/svg" viewBox="0 0 560 420" role="img" aria-labelledby="labTitle labDesc">
  <title id="labTitle">Himung Lab</title>
  <desc id="labDesc">Robot kecil Himung, lab flask, bintang, dan jendela kode.</desc>
  <rect x="48" y="54" width="330" height="210" rx="22" fill="#fff" stroke="#111" stroke-width="8"/>
  <rect x="76" y="82" width="274" height="42" rx="10" fill="#FFD928" stroke="#111" stroke-width="7"/>
  <path d="M98 156h82M98 190h132M98 224h70" stroke="#111" stroke-width="8" stroke-linecap="round"/>
  <path d="m277 158 28 28-28 28M238 214l-28-28 28-28" fill="none" stroke="#7047FF" stroke-width="9" stroke-linecap="round" stroke-linejoin="round"/>
  <g transform="translate(294 166)">
    <rect x="0" y="48" width="158" height="124" rx="28" fill="#D8FFE9" stroke="#111" stroke-width="8"/>
    <rect x="32" y="0" width="94" height="72" rx="24" fill="#fff" stroke="#111" stroke-width="8"/>
    <path d="M79 0v-32" stroke="#111" stroke-width="8" stroke-linecap="round"/>
    <circle cx="79" cy="-44" r="15" fill="#FFD928" stroke="#111" stroke-width="7"/>
    <circle cx="60" cy="34" r="7" fill="#111"/>
    <circle cx="98" cy="34" r="7" fill="#111"/>
    <path d="M62 53c12 11 24 11 36 0" fill="none" stroke="#111" stroke-width="6" stroke-linecap="round"/>
    <rect x="29" y="96" width="100" height="35" rx="10" fill="#3D7BFF" stroke="#111" stroke-width="7"/>
  </g>
  <path d="M129 286h74l-15 76H144z" fill="#FF4F9A" stroke="#111" stroke-width="8" stroke-linejoin="round"/>
  <path d="M152 286v-56h29v56" fill="#fff" stroke="#111" stroke-width="8" stroke-linejoin="round"/>
  <path d="M143 328h46" stroke="#fff" stroke-width="14" stroke-linecap="round"/>
  <path d="m438 64 16 21 25 6-19 17 2 26-24-12-24 12 3-26-20-17 26-6z" fill="#FFD928" stroke="#111" stroke-width="7" stroke-linejoin="round"/>
  <circle cx="478" cy="298" r="32" fill="#FF8A34" stroke="#111" stroke-width="8"/>
  <path d="M66 334v34M49 351h34" stroke="#FFD928" stroke-width="10" stroke-linecap="round"/>
  <path d="M66 334v34M49 351h34" stroke="#111" stroke-width="5" stroke-linecap="round"/>
</svg>
